<svg width="50" height="50" viewBox="0 0 50 50" fill="none" xmlns="http://www.w3.org/2000/svg">
<path d="M34.5583 15.4375L13.1437 36.8542C12.1437 37.8542 10.4354 37.625 9.83125 36.3542C8.70906 34.0501 8.12492 31.5212 8.12291 28.9583C8.08125 17.4583 19.7479 7.62499 23.7062 4.60416C24.4771 4.02082 25.5187 4.02082 26.2687 4.60416C28.0812 5.97916 31.4771 8.83332 34.6646 12.5833C35.3729 13.4167 35.3312 14.6667 34.5604 15.4375H34.5583ZM41.875 28.9792C41.875 38.2708 34.3125 45.8333 25 45.8333C21.3929 45.8409 17.8792 44.6867 14.9792 42.5417C13.9583 41.7917 13.875 40.2917 14.7708 39.3958L35.75 18.4167C36.7292 17.4375 38.375 17.6458 39.0417 18.8542C40.75 22 41.8958 25.4167 41.875 28.9792Z" fill="black"/>
</svg>
