<svg width="50" height="50" viewBox="0 0 50 50" fill="none" xmlns="http://www.w3.org/2000/svg">
<path d="M33.6875 20.9583H16.3125C13.8542 20.9583 13 19.3125 14.4375 17.3125L23.125 5.14584C24.1459 3.68751 25.8542 3.68751 26.875 5.14584L35.5625 17.3125C37 19.3125 36.1459 20.9583 33.6875 20.9583Z" fill="black"/>
<path d="M36.6459 37.4979H13.3542C10.0625 37.4979 8.93752 35.3104 10.875 32.6437L19.1875 20.9562H30.8125L39.125 32.6437C41.0625 35.3104 39.9375 37.4979 36.6459 37.4979V37.4979ZM26.5625 37.5V45.8333C26.5625 46.6875 25.8542 47.3958 25 47.3958C24.1459 47.3958 23.4375 46.6875 23.4375 45.8333V37.5H26.5625Z" fill="black"/>
</svg>
