<svg width="50" height="50" viewBox="0 0 50 50" fill="none" xmlns="http://www.w3.org/2000/svg">
<path d="M41.875 19.2104C38.1041 19.2104 36.5625 16.5438 38.4375 13.2729C39.5208 11.3771 38.875 8.96042 36.9791 7.87709L33.375 5.81459C31.7291 4.83542 29.6041 5.41875 28.625 7.06459L28.3958 7.46042C26.5208 10.7313 23.4375 10.7313 21.5416 7.46042L21.3125 7.06459C21.0879 6.6708 20.7872 6.3256 20.428 6.0491C20.0688 5.77259 19.6581 5.57029 19.22 5.45396C18.7818 5.33764 18.3249 5.30962 17.8758 5.37153C17.4267 5.43344 16.9945 5.58405 16.6041 5.81459L13 7.87709C11.1041 8.96042 10.4583 11.3979 11.5416 13.2938C13.4375 16.5438 11.8958 19.2104 8.12496 19.2104C5.95829 19.2104 4.16663 20.9813 4.16663 23.1688V26.8354C4.16663 29.0021 5.93746 30.7938 8.12496 30.7938C11.8958 30.7938 13.4375 33.4604 11.5416 36.7313C10.4583 38.6271 11.1041 41.0438 13 42.1271L16.6041 44.1896C18.25 45.1687 20.375 44.5854 21.3541 42.9396L21.5833 42.5437C23.4583 39.2729 26.5416 39.2729 28.4375 42.5437L28.6666 42.9396C29.6458 44.5854 31.7708 45.1687 33.4166 44.1896L37.0208 42.1271C38.9166 41.0438 39.5625 38.6063 38.4791 36.7313C36.5833 33.4604 38.125 30.7938 41.8958 30.7938C44.0625 30.7938 45.8541 29.0229 45.8541 26.8354V23.1688C45.8432 22.1187 45.4198 21.1151 44.6753 20.3745C43.9309 19.634 42.925 19.2158 41.875 19.2104ZM25 31.7729C21.2708 31.7729 18.2291 28.7313 18.2291 25.0021C18.2291 21.2729 21.2708 18.2313 25 18.2313C28.7291 18.2313 31.7708 21.2729 31.7708 25.0021C31.7708 28.7313 28.7291 31.7729 25 31.7729Z" fill="black"/>
</svg>
