<svg width="50" height="50" viewBox="0 0 50 50" fill="none" xmlns="http://www.w3.org/2000/svg">
<path d="M45.8333 44.2729H43.2291V22.9187C43.2291 17.8771 40.4583 15.1062 35.4166 15.1062H26.5625V12.5437C27.7708 12.8354 28.9791 13.0021 30.2083 13.0021C32.1666 13.0021 34.125 12.6271 36 11.8771C36.5833 11.6479 36.9791 11.0646 36.9791 10.4187V4.16875C36.9791 3.64792 36.7291 3.16875 36.2916 2.87708C36.0801 2.73365 35.8369 2.64357 35.5829 2.61455C35.329 2.58553 35.0718 2.61842 34.8333 2.71042C31.8541 3.89792 28.5625 3.89792 25.5833 2.71042C25.3448 2.61842 25.0876 2.58553 24.8336 2.61455C24.5797 2.64357 24.3365 2.73365 24.125 2.87708C23.6875 3.16875 23.4375 3.64792 23.4375 4.16875V15.1062H14.5833C9.54163 15.1062 6.77079 17.8771 6.77079 22.9187V44.2729H4.16663C3.31246 44.2729 2.60413 44.9812 2.60413 45.8354C2.60413 46.6896 3.31246 47.3979 4.16663 47.3979H45.8333C46.6875 47.3979 47.3958 46.6896 47.3958 45.8354C47.3958 44.9812 46.6875 44.2729 45.8333 44.2729ZM15.0833 44.2729H9.89579V26.5646H15.0833V44.2729ZM23.4166 44.2729H18.2083V26.5646H23.4166V44.2729ZM31.75 44.2729H26.5416V26.5646H31.75V44.2729ZM40.1041 44.2729H34.875V26.5646H40.1041V44.2729Z" fill="black"/>
</svg>
