<svg width="35" height="39" viewBox="0 0 35 39" fill="none" xmlns="http://www.w3.org/2000/svg">
<path d="M30.625 22.4738V15.75C30.625 9.71813 26.5281 4.63687 20.9781 3.10875C20.4288 1.725 19.0863 0.75 17.5 0.75C15.9138 0.75 14.5713 1.725 14.0219 3.10875C8.47188 4.63875 4.375 9.71813 4.375 15.75V22.4738L1.17438 25.6744C0.999922 25.8482 0.86157 26.0548 0.767285 26.2823C0.673 26.5098 0.624645 26.7537 0.625002 27V30.75C0.625002 31.2473 0.822546 31.7242 1.17418 32.0758C1.52581 32.4275 2.00272 32.625 2.5 32.625H32.5C32.9973 32.625 33.4742 32.4275 33.8258 32.0758C34.1775 31.7242 34.375 31.2473 34.375 30.75V27C34.3754 26.7537 34.327 26.5098 34.2327 26.2823C34.1384 26.0548 34.0001 25.8482 33.8256 25.6744L30.625 22.4738ZM30.625 28.875H4.375V27.7762L7.57563 24.5756C7.75008 24.4018 7.88843 24.1952 7.98272 23.9677C8.077 23.7402 8.12536 23.4963 8.125 23.25V15.75C8.125 10.5806 12.3306 6.375 17.5 6.375C22.6694 6.375 26.875 10.5806 26.875 15.75V23.25C26.875 23.7488 27.0719 24.225 27.4244 24.5756L30.625 27.7762V28.875ZM17.5 38.25C18.6612 38.2515 19.794 37.8911 20.7409 37.2191C21.6879 36.547 22.4019 35.5966 22.7838 34.5H12.2163C12.5981 35.5966 13.3121 36.547 14.2591 37.2191C15.206 37.8911 16.3388 38.2515 17.5 38.25Z" fill="#348F6C"/>
</svg>
