<svg width="50" height="50" viewBox="0 0 50 50" fill="none" xmlns="http://www.w3.org/2000/svg">
<path d="M29.1666 6.08332V23.3958C29.1666 25.5208 27.4375 27.25 25.3125 27.25H6.24996C5.10413 27.25 4.16663 26.3125 4.16663 25.1667V11.8542C4.16663 7.60416 7.60413 4.16666 11.8541 4.16666H27.2291C28.3125 4.16666 29.1666 5.02082 29.1666 6.08332Z" fill="black"/>
<path d="M44.7916 32.2917C45.375 32.2917 45.8333 32.75 45.8333 33.3333V35.4167C45.8333 38.875 43.0416 41.6667 39.5833 41.6667C39.5833 38.2292 36.7708 35.4167 33.3333 35.4167C29.8958 35.4167 27.0833 38.2292 27.0833 41.6667H22.9166C22.9166 38.2292 20.1041 35.4167 16.6666 35.4167C13.2291 35.4167 10.4166 38.2292 10.4166 41.6667C6.95829 41.6667 4.16663 38.875 4.16663 35.4167V31.25C4.16663 30.1042 5.10413 29.1667 6.24996 29.1667H26.0416C27.423 29.1667 28.7477 28.6179 29.7245 27.6412C30.7012 26.6644 31.25 25.3397 31.25 23.9583V12.5C31.25 11.3542 32.1875 10.4167 33.3333 10.4167H35.0833C36.5833 10.4167 37.9583 11.2292 38.7083 12.5208L40.0416 14.8542C40.2291 15.1875 39.9791 15.625 39.5833 15.625C38.202 15.625 36.8772 16.1737 35.9004 17.1505C34.9237 18.1272 34.375 19.452 34.375 20.8333V27.0833C34.375 28.4647 34.9237 29.7894 35.9004 30.7662C36.8772 31.7429 38.202 32.2917 39.5833 32.2917H44.7916Z" fill="black"/>
<path d="M16.6667 45.8333C17.7717 45.8333 18.8315 45.3943 19.6129 44.6129C20.3943 43.8315 20.8333 42.7717 20.8333 41.6667C20.8333 40.5616 20.3943 39.5018 19.6129 38.7204C18.8315 37.939 17.7717 37.5 16.6667 37.5C15.5616 37.5 14.5018 37.939 13.7204 38.7204C12.939 39.5018 12.5 40.5616 12.5 41.6667C12.5 42.7717 12.939 43.8315 13.7204 44.6129C14.5018 45.3943 15.5616 45.8333 16.6667 45.8333V45.8333ZM33.3333 45.8333C34.4384 45.8333 35.4982 45.3943 36.2796 44.6129C37.061 43.8315 37.5 42.7717 37.5 41.6667C37.5 40.5616 37.061 39.5018 36.2796 38.7204C35.4982 37.939 34.4384 37.5 33.3333 37.5C32.2283 37.5 31.1685 37.939 30.3871 38.7204C29.6057 39.5018 29.1667 40.5616 29.1667 41.6667C29.1667 42.7717 29.6057 43.8315 30.3871 44.6129C31.1685 45.3943 32.2283 45.8333 33.3333 45.8333ZM45.8333 26.1042V29.1667H39.5833C38.4375 29.1667 37.5 28.2292 37.5 27.0833V20.8333C37.5 19.6875 38.4375 18.75 39.5833 18.75H42.2708L45.2917 24.0417C45.6458 24.6667 45.8333 25.375 45.8333 26.1042Z" fill="black"/>
</svg>
