<svg width="50" height="50" viewBox="0 0 50 50" fill="none" xmlns="http://www.w3.org/2000/svg">
<path d="M18.75 4.16666C13.2917 4.16666 8.85421 8.60416 8.85421 14.0625C8.85421 19.4167 13.0417 23.75 18.5 23.9375C18.6667 23.9167 18.8334 23.9167 18.9584 23.9375H19.1042C21.6654 23.852 24.0929 22.7739 25.8736 20.931C27.6542 19.0882 28.6484 16.6251 28.6459 14.0625C28.6459 8.60416 24.2084 4.16666 18.75 4.16666ZM29.3334 29.4771C23.5209 25.6021 14.0417 25.6021 8.18754 29.4771C5.54171 31.2479 4.08337 33.6437 4.08337 36.2062C4.08337 38.7687 5.54171 41.1437 8.16671 42.8937C11.0834 44.8521 14.9167 45.8312 18.75 45.8312C22.5834 45.8312 26.4167 44.8521 29.3334 42.8937C31.9584 41.1229 33.4167 38.7479 33.4167 36.1646C33.3959 33.6021 31.9584 31.2271 29.3334 29.4771V29.4771ZM41.6459 15.2875C41.9792 19.3292 39.1042 22.8708 35.125 23.35H35.0209C34.8959 23.35 34.7709 23.35 34.6667 23.3917C32.6459 23.4958 30.7917 22.85 29.3959 21.6625C31.5417 19.7458 32.7709 16.8708 32.5209 13.7458C32.3779 12.1208 31.8261 10.5584 30.9167 9.20416C32.0083 8.67308 33.2128 8.41555 34.4262 8.45378C35.6395 8.49202 36.8254 8.82488 37.8814 9.42364C38.9375 10.0224 39.832 10.8691 40.4878 11.8907C41.1436 12.9123 41.5411 14.078 41.6459 15.2875V15.2875Z" fill="black"/>
<path d="M45.8084 34.5625C45.6417 36.5833 44.3501 38.3333 42.1834 39.5208C40.1001 40.6667 37.4751 41.2083 34.8709 41.1458C36.3709 39.7917 37.2459 38.1042 37.4126 36.3125C37.6209 33.7292 36.3917 31.25 33.9334 29.2708C32.5376 28.1667 30.9126 27.2917 29.1417 26.6458C33.7459 25.3125 39.5376 26.2083 43.1001 29.0833C45.0167 30.625 45.9959 32.5625 45.8084 34.5625V34.5625Z" fill="black"/>
</svg>
